<svg width="12" height="12" viewBox="0 0 12 12" fill="none" xmlns="http://www.w3.org/2000/svg">
<path d="M6.068 11.06C5.048 11.06 4.118 10.826 3.278 10.358C2.45 9.878 1.79 9.23 1.298 8.414C0.806 7.598 0.56 6.68 0.56 5.66C0.56 4.628 0.806 3.704 1.298 2.888C1.802 2.072 2.468 1.43 3.296 0.961999C4.124 0.493999 5.048 0.259999 6.068 0.259999C7.028 0.259999 7.91 0.493999 8.714 0.961999C9.518 1.43 10.16 2.072 10.64 2.888C11.12 3.704 11.36 4.628 11.36 5.66C11.36 6.68 11.12 7.598 10.64 8.414C10.16 9.23 9.518 9.878 8.714 10.358C7.91 10.826 7.028 11.06 6.068 11.06Z" fill="#6A24FF"/>
</svg>
